<svg width="1440" height="1396" viewBox="0 0 1440 1396" fill="none" xmlns="http://www.w3.org/2000/svg">
<rect width="1440" height="1396" fill="white"/>
<g clip-path="url(#clip0_22049_2)">
<path d="M1090.53 243.643C1197.29 338.545 1213.77 419.143 1208.7 447.589C1185.87 574.714 1085.86 597.938 1055.88 599.625C1016.33 601.795 952.816 598.902 911.012 600.027C796.614 606.536 750.227 542.33 741.384 509.464C686.718 374.946 763.331 271.366 808.512 236.411C924.598 135.723 1044.95 199.286 1090.53 243.643Z" fill="#F7BC28"/>
<path d="M909.645 337.902C905.786 353.491 899.194 369.402 885.929 378.482C873.629 386.92 856.908 387.884 843.161 382.018C829.414 376.152 818.802 364.098 813.416 350.196C809.396 339.75 808.592 326.732 816.229 318.455C820.249 314.116 825.876 311.786 831.424 309.616L867.439 295.232C868.24 294.74 869.196 294.566 870.119 294.744C871.042 294.923 871.864 295.441 872.424 296.196L909.967 331.714" fill="#32142A"/>
<path d="M870.655 302.464C866.625 306.465 861.768 309.537 856.425 311.464C851.071 313.316 845.509 314.504 839.865 315C837.614 315.241 835.363 315.482 833.433 316.527C831.793 317.537 830.438 318.947 829.494 320.625C827.657 323.889 826.689 327.568 826.68 331.313C826.283 340.064 829.083 348.661 834.559 355.5C841.553 364.259 852.084 370.527 863.339 371.491C874.835 372.455 887.055 366.75 892.361 356.304C893.406 354.214 894.049 347.223 890.753 354.938C887.055 363.536 875.8 367.795 866.555 367.955C856.024 368.116 845.894 362.652 838.98 355.018C835.524 351.241 830.78 346.741 829.494 341.839C828.931 339.358 828.608 336.829 828.529 334.286C828.313 331.979 828.422 329.652 828.851 327.375C829.655 324 833.916 320.143 837.051 319.098C839.061 318.455 841.231 318.536 843.322 318.455C850.557 318.134 857.471 315.08 863.339 310.902C864.786 309.857 866.233 308.732 867.68 307.607C868.321 307.128 868.889 306.56 869.369 305.92C869.591 305.577 869.722 305.183 869.75 304.775C869.778 304.368 869.702 303.96 869.529 303.589C869.333 303.275 869.022 303.048 868.662 302.958C868.302 302.869 867.921 302.922 867.6 303.107C867.52 303.107 867.52 303.188 867.439 303.188L870.655 302.464Z" fill="#7F4341"/>
<path d="M842.598 337.58C842.196 334.366 841.553 330.268 843.884 327.616C846.216 324.964 850.316 324.804 853.612 324.884C857.712 325.045 864.625 323.277 868.565 321.268C871.941 319.58 872.584 321.429 875.398 319.098C877.167 317.571 874.594 315.08 872.825 316.527C869.851 319.098 866.314 321.509 862.375 322.071C858.114 322.714 853.612 320.866 849.351 321.348C845.814 321.75 842.276 323.196 840.267 326.33C838.096 329.625 841.231 335.089 841.714 338.786C841.718 339.253 841.906 339.701 842.236 340.031C842.567 340.362 843.015 340.549 843.482 340.554C844.447 340.634 842.759 338.545 842.598 337.58Z" fill="#7F4341"/>
<path d="M886.331 346.58C890.11 342.964 890.833 342.321 893.245 337.661C893.467 337.24 893.524 336.752 893.405 336.291C893.286 335.83 893 335.431 892.602 335.17C891.798 334.688 891.878 334.286 891.396 335.17C889.175 339.655 886.243 343.753 882.714 347.304C881.99 347.946 877.729 350.036 878.453 350.679C879.176 351.321 883.357 349.152 884.08 348.509L886.331 346.58Z" fill="#7F4341"/>
<path d="M889.306 493.393C896.461 496.929 904.661 498.134 912.539 497.571C918.649 497.17 928.296 496.446 931.029 489.857C936.818 475.795 942.606 460.366 948.474 445.982C950.323 441.482 945.42 438.67 941.963 437.223C935.823 434.86 929.219 433.952 922.669 434.571C917.523 434.973 908.278 436.661 905.304 441.562L903.776 444.616L889.306 493.393Z" fill="#E48929"/>
<path d="M894.773 495.643L895.657 495.723C900.32 496.045 923.151 497.25 931.431 488.893L932.476 486.241L894.773 495.643Z" fill="#C05929"/>
<path d="M943.731 455.625C945.098 456.027 946.384 456.429 947.671 456.911L948.153 457.071C948.41 457.174 948.653 457.309 948.876 457.473C949.118 457.634 949.359 457.714 949.6 457.875L949.922 458.116C950.324 458.357 949.68 457.955 950.002 458.196C950.832 458.845 951.482 459.695 951.89 460.665C952.298 461.636 952.451 462.695 952.333 463.741C951.931 468.562 947.51 471.616 943.008 472.339C942.525 472.42 943.329 472.339 942.847 472.339L942.284 472.42H940.194C940.033 472.42 939.31 472.339 939.551 472.339C938.2 472.183 936.891 471.775 935.692 471.134C935.1 470.807 934.406 470.717 933.75 470.881C933.094 471.045 932.524 471.451 932.155 472.018C931.981 472.312 931.868 472.638 931.823 472.977C931.777 473.315 931.8 473.66 931.89 473.989C931.98 474.319 932.135 474.627 932.346 474.896C932.557 475.165 932.82 475.388 933.12 475.553C936.047 477.049 939.332 477.705 942.609 477.45C945.887 477.194 949.03 476.037 951.69 474.107C954.584 471.937 956.835 468.884 957.318 465.268C957.638 463.539 957.566 461.761 957.107 460.064C956.647 458.368 955.813 456.796 954.665 455.464C952.253 452.652 948.475 451.527 945.018 450.482C941.882 449.679 940.516 454.661 943.731 455.625Z" fill="#E48929"/>
<path d="M899.676 462.134C899.991 464.312 900.745 466.404 901.892 468.282C903.039 470.161 904.555 471.787 906.349 473.062C909.886 475.714 915.996 477.321 920.337 477.723C918.89 479.812 914.71 480.696 912.218 481.339C909.716 482.036 907.067 482.008 904.58 481.259C900.882 480.054 898.149 476.839 896.782 473.223C895.553 469.549 895.276 465.623 895.978 461.812" fill="#C05929"/>
<path d="M866.716 300.375C861.249 273.375 886.492 247.339 911.253 241.071C960.855 228.616 967.045 302.464 924.437 328.982C915.433 334.527 902.731 323.598 892.522 320.786C882.312 317.973 873.227 310.821 868.886 301.178" fill="#32142A"/>
<path d="M903.937 249.187C888.1 251.437 888.582 222.027 903.696 219.054C909.725 217.848 916.8 219.937 920.82 224.598C923.312 227.491 927.974 245.973 921.463 246.777C915.594 247.5 909.725 248.304 903.937 249.187Z" fill="#32142A"/>
<path d="M863.42 325.527C863.018 326.25 870.575 322.553 870.816 323.277C872.665 328.178 876.765 331.473 881.267 334.045C886.171 336.857 894.933 344.491 900.561 344.491C913.022 344.33 925.241 329.464 933.12 319.821C941.48 309.616 944.053 297.562 946.304 284.625C946.786 281.812 946.867 278.678 945.178 276.428C944.187 275.21 942.92 274.246 941.48 273.616C927.974 266.786 911.092 270.723 898.712 279.402C887.618 287.277 879.498 298.366 871.861 309.616C869.61 312.991 868.082 317.491 863.42 325.527Z" fill="#FFC9A0"/>
<path d="M874.594 309.777C867.761 309.134 863.018 300.938 865.269 294.509C867.52 288.08 875.72 284.625 882.151 286.955C888.582 289.286 892.602 296.679 891.637 303.509" fill="#FFC9A0"/>
<path d="M852.888 339.75L869.931 316.607C870.261 316.019 870.81 315.586 871.459 315.402C871.786 315.423 872.106 315.513 872.397 315.665C872.687 315.817 872.943 316.029 873.147 316.286C877.167 319.982 881.508 324.402 881.106 329.866C880.945 332.518 879.578 334.929 878.292 337.259L868.404 354.938L852.888 339.75Z" fill="#FFC9A0"/>
<path d="M848.145 331.714C797.176 354.455 769.682 407.813 756.659 459.482C751.674 479.089 749.343 498.616 747.735 518.705C747.494 521.679 745.725 567.804 744.198 567.804C786.886 567.884 810.28 561.938 852.888 562.018C843.723 483.509 857.069 419.625 873.629 355.018L848.145 331.714Z" fill="#FAC7B7"/>
<path d="M948.716 275.223C948.423 274.358 948.046 273.523 947.59 272.732C942.767 263.732 931.19 261.161 921.784 262.928C910.127 265.178 899.918 272.732 890.914 281.089C887.376 284.384 881.025 289.607 880.222 292.178C879.418 294.75 896.863 301.5 900.561 301.982C910.288 303.348 920.418 302.062 929.824 299.25C934.647 297.803 941.882 296.518 945.982 293.464C946.947 292.661 951.047 281.732 948.716 275.223Z" fill="#32142A"/>
<path d="M872.343 511.795C875.88 503.277 884.884 498.134 893.888 495.884C902.892 493.634 912.298 493.473 921.302 491.223C930.306 488.973 939.39 483.991 943.008 475.554C944.455 472.179 943.892 466.795 940.194 466.554C938.798 466.603 937.451 467.08 936.335 467.92C931.753 470.732 927.573 474.188 922.829 476.679C918.086 479.17 912.539 480.777 907.314 479.491C902.088 478.205 897.506 473.545 897.667 468.161C897.92 465.848 898.378 463.563 899.033 461.33C899.435 459.884 894.049 462.857 892.602 464.464C891.155 466.072 889.627 467.679 888.984 469.768C885.045 482.464 872.504 490.098 860.927 496.607" fill="#FFC9A0"/>
<path d="M873.227 304.312C870.816 302.143 868.243 298.205 870.092 294.911C870.98 293.47 872.288 292.336 873.841 291.661C875.393 290.986 877.115 290.802 878.774 291.134C879.9 291.375 880.382 289.607 879.257 289.366C875.237 288.643 870.574 290.25 868.565 294.027C866.314 298.045 868.886 302.866 872.022 305.598C872.825 306.402 874.112 305.116 873.227 304.312Z" fill="#32142A"/>
<path d="M876.041 300.696C875.8 300.375 875.559 299.973 875.318 299.652C875.194 299.446 875.087 299.231 874.996 299.009C874.916 298.848 874.835 298.768 874.835 298.607C874.744 298.404 874.69 298.186 874.674 297.964C874.755 298.125 874.674 297.884 874.674 297.884V297.241C874.669 297.197 874.674 297.153 874.688 297.112C874.702 297.07 874.724 297.032 874.755 297C874.755 296.92 874.755 296.92 874.835 296.839C874.916 296.759 874.916 296.679 874.996 296.598C875.076 296.518 875.157 296.357 875.076 296.518L875.237 296.357L875.318 296.277C875.398 296.196 875.478 296.196 875.559 296.116C875.398 296.196 875.559 296.116 875.639 296.116C875.72 296.116 875.8 296.036 875.88 296.036H877.327L877.569 296.116L878.131 296.277C878.366 296.362 878.625 296.351 878.851 296.245C879.077 296.14 879.252 295.949 879.337 295.714C879.422 295.48 879.411 295.221 879.306 294.995C879.2 294.769 879.009 294.594 878.774 294.509C878.694 294.509 878.694 294.509 878.614 294.429C877.656 294.11 876.636 294.027 875.639 294.188C875.154 294.26 874.691 294.442 874.287 294.721C873.883 294.999 873.548 295.367 873.308 295.795C873.069 296.248 872.924 296.746 872.883 297.257C872.841 297.768 872.904 298.282 873.067 298.768C873.364 299.806 873.885 300.766 874.594 301.58C874.744 301.768 874.957 301.895 875.193 301.939C875.429 301.983 875.672 301.941 875.88 301.821C876.002 301.664 876.08 301.477 876.108 301.28C876.137 301.083 876.113 300.882 876.041 300.696Z" fill="#32142A"/>
<path d="M926.286 481.5C928.778 479.973 931.11 478.366 933.522 476.679C937.059 474.188 940.837 471.857 943.169 468.08C944.053 466.634 941.802 465.348 940.918 466.795C938.747 470.25 935.049 472.42 931.833 474.67C929.582 476.277 927.251 477.804 924.92 479.25C923.553 480.134 924.839 482.384 926.286 481.5Z" fill="#EFB086"/>
<path d="M931.833 484.152C934.447 482.54 936.921 480.712 939.229 478.687C941.4 476.679 943.41 474.348 945.42 472.098C946.545 470.893 944.696 469.045 943.571 470.25C941.561 472.42 939.631 474.67 937.461 476.679C935.32 478.602 933.005 480.324 930.547 481.821C929.18 482.786 930.467 485.036 931.833 484.152Z" fill="#EFB086"/>
<path d="M939.792 446.545C938.586 446.625 937.461 446.545 936.255 446.545C933.682 446.545 931.11 446.464 928.537 446.223C923.241 445.839 918.007 444.842 912.941 443.25C911.494 442.768 909.725 441.723 910.208 440.357C910.529 439.554 911.494 439.152 912.378 438.83C921.865 435.777 927.251 435.696 940.757 439.795C942.767 440.438 947.59 442.768 945.5 444.777C945.016 445.22 944.439 445.549 943.812 445.741C942.518 446.201 941.164 446.471 939.792 446.545Z" fill="#32142A"/>
<path d="M916.237 306C920.659 304.232 926.045 304.393 930.708 305.197C930.987 305.292 931.283 305.331 931.578 305.309C931.873 305.288 932.16 305.207 932.423 305.072C932.685 304.937 932.918 304.75 933.107 304.523C933.296 304.296 933.437 304.033 933.522 303.75C934.084 302.143 932.396 301.098 931.029 300.616C927.01 299.25 922.588 299.652 918.569 300.857C916.531 301.514 914.564 302.376 912.7 303.429C911.494 304.152 908.359 305.598 908.6 307.366C908.922 309.777 914.629 306.643 915.674 306.161L916.237 306Z" fill="#32142A"/>
<path d="M899.516 293.304C908.359 293.786 913.424 294.027 921.945 291.295C928.354 289.331 934.199 285.858 938.988 281.17C941.561 278.518 942.365 272.411 943.169 268.714C943.651 266.464 941.4 270.322 940.274 272.973C937.943 278.598 934.647 280.848 929.663 283.822C923.887 287.367 917.363 289.513 910.61 290.089C905.465 290.411 901.043 290.973 891.637 290.893C889.306 290.893 893.004 292.902 895.335 293.063L899.516 293.304Z" fill="#7F4341"/>
<path d="M884 273.616C885.769 269.679 888.743 266.625 892.12 263.973C897.425 259.704 903.296 256.188 909.565 253.527C912.62 252.241 915.996 250.714 919.292 250.152C922.427 249.589 925.884 251.518 928.618 252.804C930.036 253.338 931.385 254.04 932.637 254.893C933.29 255.388 933.792 256.056 934.084 256.821C934.406 258.348 932.959 258.429 931.753 258.509C925.804 258.75 919.533 258.911 913.665 260.357C907.796 261.804 902.973 265.179 898.229 268.955C897.425 269.598 895.094 272.411 895.737 273.054C896.38 273.696 901.284 268.795 902.088 268.152C905.187 265.528 908.802 263.584 912.7 262.446C918.006 260.679 924.598 262.446 930.145 262.205C933.039 262.045 940.435 262.848 939.631 261.241C938.827 259.634 935.773 252.402 932.798 250.875C929.78 249.261 926.6 247.968 923.312 247.018C921.932 246.603 920.484 246.466 919.051 246.616C917.798 246.852 916.562 247.174 915.353 247.58C908.466 249.679 902.088 253.181 896.622 257.866C890.351 263.33 884.161 268.875 880.784 276.589C879.739 278.679 883.035 275.786 884 273.616Z" fill="#7F4341"/>
<path d="M906.349 281.33C915.112 283.741 923.794 281.25 929.341 273.857C929.904 273.054 932.074 268.795 931.673 268.795C931.271 268.795 930.065 270.964 929.502 271.768C924.92 277.875 913.745 280.929 906.51 280.125C900.078 279.482 904.018 280.768 906.349 281.33Z" fill="#7F4341"/>
<path d="M881.427 481.821L883.437 479.571L891.637 496.527L888.02 497.812L881.427 481.821Z" fill="#EFB086"/>
<path d="M880.222 333.563L870.816 323.357L876.202 341.116L880.222 333.563Z" fill="#EFB086"/>
<path d="M922.267 310.179C920.096 310.339 917.363 312.027 917.363 314.036C917.363 316.688 920.9 315.563 922.106 314.679C922.99 314.036 924.598 313.072 924.678 311.866C924.759 310.661 923.633 310.098 922.267 310.179Z" fill="#32142A"/>
<path d="M932.718 316.929C930.788 317.893 928.859 320.464 929.663 322.393C930.708 324.884 933.522 322.473 934.325 321.107C934.888 320.223 936.014 318.696 935.612 317.491C935.21 316.286 933.923 316.286 932.718 316.929Z" fill="#32142A"/>
<path d="M744.198 540.964C745.082 531.241 743.073 519.348 742.992 509.625C742.912 501.75 742.429 495.804 744.922 488.411C745.117 487.877 745.509 487.439 746.017 487.185C746.525 486.931 747.111 486.881 747.655 487.045C747.968 487.159 748.253 487.341 748.489 487.577C748.725 487.813 748.907 488.097 749.022 488.411C751.353 495.241 755.292 502.232 756.82 509.384C756.836 509.513 756.878 509.637 756.945 509.748C757.011 509.86 757.1 509.957 757.206 510.032C757.312 510.108 757.432 510.16 757.559 510.187C757.687 510.214 757.818 510.214 757.945 510.187C758.111 510.152 758.265 510.074 758.392 509.961C758.519 509.849 758.614 509.705 758.669 509.545C759.955 505.125 760.116 500.384 760.678 495.804C761.002 492.496 761.872 489.265 763.251 486.241C763.712 485.359 764.497 484.689 765.442 484.375C766.387 484.06 767.417 484.124 768.316 484.554C768.754 484.752 769.145 485.041 769.463 485.401C769.782 485.761 770.021 486.184 770.165 486.643L773.782 496.446C774.442 498.289 775.221 500.088 776.114 501.83C777.708 504.373 779.751 506.606 782.143 508.42C793.318 517.661 808.029 521.839 822.5 522.482C836.971 523.125 851.441 520.312 865.429 516.696L852.808 541.446L853.853 604.366H744.037L744.198 540.964Z" fill="#E48929"/>
<path d="M780.857 540.804C776.676 531.482 771.29 515.089 768.959 506.411C763.894 487.687 759.874 468.482 761.322 449.116L765.1 442.125C779.088 473.062 794.604 505.768 823.304 523.929C824.671 524.812 826.118 525.696 826.922 527.062C827.645 528.268 850.476 526.259 850.557 527.705C850.959 532.205 852.004 536.304 852.969 541.366L780.857 540.804Z" fill="#E48929"/>
<path d="M811.165 420.991C813.898 399.536 825.555 378.804 826.359 357.188C826.439 354.616 826.359 351.964 824.831 349.875C820.892 344.33 812.129 347.947 806.984 352.286C778.767 375.83 760.598 411.83 761.161 448.554C761.322 458.759 762.849 468.884 764.859 478.929C768.155 495.563 773.059 512.759 785.118 524.732C800.231 539.679 823.867 543.054 844.608 538.714C865.349 534.375 884.08 523.286 902.329 512.438C893.647 490.982 884.965 469.58 876.282 448.232C865.671 454.741 854.576 461.491 842.196 462.697C827.002 464.143 814.3 454.982 811.486 439.875C810.375 433.638 810.267 427.263 811.165 420.991Z" fill="#FAC7B7"/>
<path d="M814.3 350.518C817.435 349.393 820.892 349.152 823.706 351.161C826.198 352.848 827.404 355.982 827.645 358.875C827.794 360.933 827.577 363.001 827.002 364.982C826.906 365.313 826.945 365.667 827.111 365.969C827.277 366.27 827.556 366.493 827.886 366.589C828.217 366.685 828.572 366.646 828.873 366.48C829.175 366.314 829.398 366.036 829.494 365.705C830.692 361.735 830.464 357.472 828.851 353.652C828.147 351.993 827.032 350.539 825.612 349.429C824.192 348.318 822.512 347.587 820.731 347.304C818.29 346.968 815.804 347.244 813.496 348.107C812.049 348.589 812.692 351.08 814.3 350.518Z" fill="#F9A793"/>
<path d="M767.673 491.545C766.788 488.009 798.945 494.116 801.598 494.759C807.225 496.045 808.753 499.902 810.361 505.045C813.898 516.696 817.596 528.348 820.571 540.161C820.651 540.08 780.214 541.527 767.673 491.545Z" fill="#F9B7A5"/>
<path d="M875.8 447.027C870.916 449.943 865.808 452.469 860.525 454.58C855.672 456.653 850.674 458.372 845.573 459.723C840.735 461.103 835.603 461.075 830.78 459.643C825.314 458.036 820.088 454.821 817.114 449.92C813.959 444.478 812.321 438.29 812.371 432C812.371 431.659 812.235 431.332 811.994 431.091C811.753 430.85 811.425 430.714 811.084 430.714C810.743 430.714 810.416 430.85 810.175 431.091C809.934 431.332 809.798 431.659 809.798 432C809.784 437.871 811.103 443.668 813.657 448.955C816.39 454.58 820.973 458.438 826.68 460.929C832.025 463.315 837.97 464.015 843.724 462.938C848.832 461.744 853.833 460.131 858.676 458.116C864.958 455.781 871.013 452.876 876.765 449.438L875.8 447.027Z" fill="#F9A793"/>
<path d="M927.09 315.321C926.769 315.562 926.447 315.804 926.206 315.964C922.91 318.777 920.096 322.393 917.122 325.607C916.607 326.035 916.264 326.634 916.157 327.295C916.157 328.098 916.88 328.741 917.604 329.223C920.176 331.071 923.151 333 926.608 330.509C927.955 329.474 928.941 328.04 929.422 326.411C930.529 322.953 931.125 319.353 931.19 315.723C931.271 312.911 928.778 314.196 927.09 315.321Z" fill="#E48929"/>
<path d="M922.347 575.839C922.347 575.839 941.561 424.286 1082.89 412.634L1090.93 400.018L1138.36 396L1144.47 412.634C1144.47 412.634 1206.05 448.473 1198.01 520.071L1130.32 548.036V578.652L922.347 575.839Z" fill="#39B55D"/>
<path d="M1138.44 396C1138.44 396 1133.86 355.339 1133.22 351.563C1131.85 344.25 1130.64 331.313 1127.59 324.563C1122.93 314.277 1110.22 309.054 1099.29 311.866C1086.83 315 1078.15 327.696 1073.32 338.866C1068.82 349.232 1058.77 380.571 1068.82 390.134C1076.3 397.286 1091.49 392.866 1099.29 388.446L1097.44 399.616L1138.44 396Z" fill="#B26D55"/>
<path d="M1128.87 352.527C1129.12 349.393 1132.09 347.304 1134.98 346.098C1137.04 345.144 1139.31 344.73 1141.58 344.893C1142.7 344.984 1143.79 345.337 1144.75 345.923C1145.71 346.509 1146.53 347.312 1147.12 348.268C1147.75 349.452 1148.03 350.789 1147.93 352.125C1147.77 356.143 1145.27 359.679 1142.78 362.893C1139.25 367.634 1135.39 372.616 1129.84 374.705" fill="#B26D55"/>
<path d="M1130.32 548.036C1129.12 527.223 1127.91 506.33 1130.08 485.518C1132.25 464.705 1133.14 430.071 1144.47 412.634C1159.83 421.955 1181.77 445.661 1188.61 462.294C1195.28 478.446 1200.66 489.857 1198.01 520.071L1130.32 548.036Z" fill="#39B55D"/>
<path d="M1082.89 412.634L1075.25 424.446L1071.07 413.92C1070.99 414 1079.27 412.634 1082.89 412.634Z" fill="#194429"/>
<path d="M1069.87 360.804C1068.59 364.794 1067.78 368.92 1067.45 373.098C1067.36 374.148 1067.55 375.204 1068.02 376.152C1068.11 376.346 1068.24 376.512 1068.42 376.634C1068.63 376.7 1068.85 376.727 1069.06 376.714C1072.04 376.554 1075.09 376.393 1077.83 375.187C1078.3 375.016 1078.72 374.709 1079.03 374.304C1079.19 374.04 1079.29 373.747 1079.33 373.444C1079.37 373.14 1079.35 372.832 1079.27 372.536C1078.47 367.473 1074.85 364.018 1072.36 359.116C1072.21 358.884 1071.98 358.715 1071.71 358.641C1071.44 358.567 1071.16 358.593 1070.91 358.714C1070.82 358.764 1070.73 358.832 1070.66 358.914C1070.59 358.997 1070.54 359.093 1070.51 359.196C1070.27 359.679 1070.11 360.241 1069.87 360.804Z" fill="#C05929"/>
<path d="M1198.01 520.072C1197.5 540.87 1194.26 561.511 1188.36 581.464C1184.75 594 1181.13 617.304 1170.44 625.982C1160.39 634.018 1144.55 627.67 1134.18 623.571C1120.51 618.188 1106.69 614.17 1093.02 609.107C1075.25 602.518 1048.48 598.661 1028.87 600.348C1019.3 601.232 1015.36 594.241 1005.87 595.205C1004.19 595.366 1002.26 595.527 1000.89 594.563C999.849 593.742 999.045 592.661 998.559 591.429L993.896 582.188C993.098 580.911 992.68 579.434 992.69 577.929C992.851 575.598 994.861 573.83 996.871 572.545C1007.16 565.634 1019.46 562.42 1031.76 560.732C1066.33 555.991 1100.74 563.786 1131.13 580.902C1131.45 569.813 1131.77 562.982 1132.41 547.152L1198.01 520.072Z" fill="#B26D55"/>
<path d="M1056.84 591.75C1061.67 593.437 1074.37 593.116 1077.66 596.25C1081.12 599.464 1051.62 600.67 1048 601.071C1019.54 603.723 991.082 605.411 962.543 606.536C935.371 607.58 906.188 610.955 879.257 606.857C868.243 605.17 864.465 600.428 863.902 589.42C862.616 562.5 861.41 535.5 860.123 508.58C860.012 505.964 860.856 503.397 862.497 501.357C864.139 499.317 866.467 497.943 869.047 497.491C916.162 489.703 963.938 486.634 1011.66 488.33C1013.4 488.385 1015.05 489.067 1016.33 490.249C1017.6 491.43 1018.4 493.033 1018.58 494.759C1019.86 508.259 1024.69 539.598 1025.65 543.214C1028.38 553.42 1031.28 563.946 1036.75 573.027C1041.57 581.223 1044.86 587.652 1056.84 591.75Z" fill="#194429"/>
<path d="M1131.61 352.848C1133.22 352.358 1134.78 351.712 1136.27 350.92C1137.64 350.357 1139.65 349.473 1141.09 350.357C1141.98 350.839 1141.9 351.884 1141.82 352.768C1141.69 353.775 1141.47 354.77 1141.17 355.741C1140.6 357.682 1139.73 359.525 1138.6 361.205C1137.24 363.137 1135.38 364.664 1133.22 365.625C1132.17 366.107 1133.05 367.634 1134.1 367.152C1138.52 365.143 1141.42 360.964 1142.78 356.384C1143.1 355.249 1143.34 354.095 1143.51 352.928C1143.73 351.798 1143.53 350.626 1142.94 349.634C1141.66 347.866 1139.25 347.946 1137.4 348.509C1135.23 349.152 1133.22 350.437 1131.05 351C1130.93 351.034 1130.83 351.091 1130.74 351.167C1130.65 351.243 1130.57 351.336 1130.52 351.442C1130.47 351.547 1130.44 351.662 1130.43 351.779C1130.43 351.897 1130.44 352.014 1130.48 352.125C1130.56 352.358 1130.71 352.558 1130.91 352.69C1131.12 352.822 1131.37 352.878 1131.61 352.848Z" fill="#32142A"/>
<path d="M1130.64 357.348C1131.22 357.169 1131.78 356.955 1132.33 356.705C1132.63 356.621 1132.93 356.514 1133.22 356.384C1133.38 356.304 1133.54 356.304 1133.7 356.223L1133.86 356.143C1133.86 356.143 1134.1 356.063 1133.94 356.143H1134.5C1134.58 356.143 1134.74 356.223 1134.58 356.143C1134.42 356.063 1134.66 356.223 1134.66 356.223L1134.82 356.384L1134.9 356.545C1134.9 356.625 1134.98 356.705 1134.98 356.786C1134.82 356.545 1134.98 356.866 1134.98 356.866V356.946C1134.9 356.786 1134.98 356.786 1134.98 356.946V357.268C1134.98 357.348 1134.9 357.429 1134.98 357.188V357.268C1134.99 357.38 1134.96 357.492 1134.9 357.589L1134.82 357.75C1134.73 357.945 1134.62 358.133 1134.5 358.313L1134.34 358.634L1134.26 358.714C1134.1 358.875 1134.42 358.554 1134.26 358.795C1133.96 359.161 1133.64 359.51 1133.3 359.839C1133.13 360.02 1132.94 360.181 1132.73 360.321L1132.65 360.402L1132.57 360.482L1132.25 360.723C1131.87 360.994 1131.46 361.235 1131.05 361.446L1130.72 361.607C1130.56 361.688 1130.64 361.607 1130.72 361.607L1130.56 361.688C1130.4 361.768 1130.24 361.768 1130.08 361.848C1129.96 361.88 1129.86 361.934 1129.76 362.008C1129.67 362.081 1129.59 362.173 1129.53 362.278C1129.47 362.382 1129.43 362.497 1129.41 362.617C1129.4 362.736 1129.41 362.857 1129.44 362.973C1129.47 363.089 1129.52 363.198 1129.6 363.293C1129.67 363.388 1129.76 363.468 1129.87 363.528C1129.97 363.587 1130.09 363.626 1130.21 363.641C1130.33 363.656 1130.45 363.648 1130.56 363.616C1131.46 363.38 1132.31 362.971 1133.05 362.411C1134 361.772 1134.87 361.016 1135.63 360.161C1136.37 359.34 1136.83 358.294 1136.91 357.188C1136.9 356.554 1136.67 355.944 1136.26 355.46C1135.85 354.977 1135.29 354.651 1134.66 354.536C1133.14 354.375 1131.69 355.339 1130.24 355.661C1130.12 355.692 1130.02 355.747 1129.92 355.82C1129.83 355.894 1129.75 355.986 1129.69 356.09C1129.63 356.195 1129.59 356.31 1129.57 356.429C1129.56 356.548 1129.57 356.67 1129.6 356.786C1129.6 357.268 1130.08 357.509 1130.64 357.348Z" fill="#32142A"/>
<path d="M1081.28 434.411C1085.86 425.411 1090.61 416.571 1095.59 407.732C1096.4 406.286 1094.15 405 1093.34 406.446C1088.44 415.205 1083.69 424.125 1079.03 433.125C1078.31 434.652 1080.56 435.937 1081.28 434.411Z" fill="#194429"/>
<path d="M1116.17 436.179L1119.31 403.393C1119.47 401.705 1116.9 401.786 1116.74 403.393L1113.6 436.259C1113.44 437.866 1116.01 437.866 1116.17 436.179Z" fill="#194429"/>
<path d="M1128.07 426.616V405.402C1128.07 405.061 1127.94 404.734 1127.69 404.493C1127.45 404.251 1127.13 404.116 1126.78 404.116C1126.44 404.116 1126.12 404.251 1125.87 404.493C1125.63 404.734 1125.5 405.061 1125.5 405.402V426.616C1125.5 426.785 1125.53 426.954 1125.59 427.111C1125.66 427.268 1125.75 427.41 1125.87 427.53C1125.99 427.65 1126.13 427.744 1126.29 427.808C1126.45 427.872 1126.61 427.904 1126.78 427.902C1127.12 427.894 1127.45 427.755 1127.68 427.516C1127.92 427.277 1128.06 426.954 1128.07 426.616Z" fill="#194429"/>
<path d="M1105.88 430.473C1106.54 424.418 1107.56 418.407 1108.94 412.473C1109.34 410.866 1106.85 410.143 1106.45 411.75C1105 417.891 1103.96 424.118 1103.31 430.393C1103.31 430.562 1103.34 430.73 1103.4 430.887C1103.47 431.044 1103.56 431.187 1103.68 431.307C1103.8 431.427 1103.94 431.521 1104.1 431.585C1104.26 431.649 1104.43 431.681 1104.6 431.679C1104.93 431.687 1105.25 431.566 1105.49 431.34C1105.73 431.114 1105.87 430.803 1105.88 430.473Z" fill="#194429"/>
<path d="M1092.94 435.455L1104.11 405.723C1104.68 404.196 1102.18 403.473 1101.62 405L1090.45 434.732C1089.88 436.259 1092.38 436.982 1092.94 435.455Z" fill="#194429"/>
<path d="M1132.09 401.866C1134.26 408.295 1136.75 414.643 1138.76 421.152C1138.86 421.482 1139.08 421.761 1139.38 421.927C1139.69 422.092 1140.04 422.132 1140.37 422.036C1140.7 421.94 1140.98 421.717 1141.15 421.415C1141.31 421.114 1141.35 420.759 1141.25 420.429C1139.33 413.92 1136.83 407.571 1134.58 401.143C1134.02 399.616 1131.53 400.339 1132.09 401.866Z" fill="#194429"/>
<path d="M1132.41 547.152C1132.25 528.348 1132.65 509.464 1133.62 490.741C1133.86 485.437 1134.18 480.134 1134.58 474.83C1134.66 473.143 1132.09 473.143 1132.01 474.83C1130.72 493.58 1130 512.384 1129.84 531.241C1129.76 536.545 1129.76 542.973 1129.76 548.277L1132.41 547.152Z" fill="#194429"/>
<path d="M1117.06 573.75L1132.57 510.75L1132.65 581.705L1117.06 573.75Z" fill="#194429"/>
<path d="M1132.57 580.741C1134.98 582.015 1137.19 583.61 1139.16 585.482L1132.65 569.652L1132.57 580.741Z" fill="#A05744"/>
<path d="M1090.05 352.045C1089.24 353.813 1089.4 356.143 1089.64 358.071C1090.13 361.366 1092.94 360.402 1093.82 357.83C1094.55 355.741 1094.87 352.929 1093.58 351.08C1092.3 349.232 1090.77 350.357 1090.05 352.045Z" fill="#32142A"/>
<path d="M1062.55 355.661C1061.9 357.601 1061.76 359.678 1062.15 361.688C1062.63 364.982 1065.45 364.018 1066.33 361.447C1067.05 359.357 1067.37 356.545 1066.09 354.696C1064.8 352.848 1063.27 354.054 1062.55 355.661Z" fill="#32142A"/>
<path d="M1073.08 356.384C1073.65 355.982 1074.21 355.661 1074.69 355.259C1075.22 354.879 1075.82 354.606 1076.46 354.455C1078.23 354.134 1080.16 353.893 1081.68 355.018C1081.89 355.118 1082.12 355.137 1082.33 355.072C1082.55 355.008 1082.73 354.863 1082.84 354.669C1082.96 354.475 1082.99 354.245 1082.94 354.026C1082.89 353.807 1082.76 353.616 1082.57 353.491C1080.72 352.125 1078.39 352.366 1076.3 352.688C1074.76 353.083 1073.33 353.825 1072.12 354.857C1071.92 354.979 1071.78 355.172 1071.72 355.396C1071.66 355.62 1071.69 355.859 1071.8 356.063C1071.94 356.259 1072.15 356.399 1072.38 356.458C1072.62 356.517 1072.86 356.491 1073.08 356.384Z" fill="#32142A"/>
<path d="M1073.24 338.705C1072.84 339.911 1101.86 328.179 1115.05 325.607L1120.11 361.688C1123.24 356.513 1127.3 351.963 1132.09 348.268C1132.09 348.268 1134.98 310.018 1108.54 310.259C1108.54 310.259 1083.37 309.295 1073.24 338.705Z" fill="#FAC7B7"/>
<path d="M1088.92 344.411C1089.48 344.411 1090.13 344.33 1090.69 344.33C1093.8 344.058 1096.92 344.671 1099.69 346.098C1102.02 347.223 1104.19 348.67 1106.53 349.795C1107.33 350.197 1108.29 350.518 1108.86 349.634C1109.02 349.252 1109.1 348.837 1109.09 348.42C1109.08 348.003 1108.97 347.594 1108.78 347.223C1107.1 343.627 1104.45 340.567 1101.14 338.384C1098.8 337.109 1096.17 336.445 1093.5 336.455C1091.25 336.455 1086.19 336.938 1084.26 338.304C1081.85 339.991 1085.06 343.447 1087.71 344.25C1088.11 344.348 1088.51 344.402 1088.92 344.411Z" fill="#FAC7B7"/>
<path d="M1070.99 342.321C1068.58 341.518 1060.7 342.08 1058.53 343.768C1056.52 345.214 1057.89 345.616 1059.9 347.062C1060.7 347.625 1064.16 348.027 1065.12 348.107C1073.73 349.232 1074.85 348.911 1075.57 347.062C1075.62 346.931 1075.64 346.791 1075.62 346.652C1075.61 346.513 1075.57 346.379 1075.49 346.259C1074.93 344.571 1073.4 343.446 1071.88 342.643C1071.47 342.482 1071.23 342.402 1070.99 342.321Z" fill="#FAC7B7"/>
<path d="M1060.86 345.054C1054.75 345.295 1050.09 350.679 1049.29 356.545C1048.88 359.759 1049.21 363.214 1051.14 365.946C1052.77 368.349 1055.23 370.066 1058.05 370.768C1064.08 372.295 1070.35 368.679 1072.6 362.973C1073.28 361.203 1073.59 359.313 1073.5 357.419C1073.42 355.525 1072.95 353.668 1072.12 351.964C1071.12 349.843 1069.52 348.059 1067.52 346.832C1065.52 345.604 1063.21 344.986 1060.86 345.054C1060.74 345.059 1060.63 345.089 1060.52 345.142C1060.42 345.194 1060.32 345.268 1060.25 345.359C1060.17 345.45 1060.12 345.555 1060.08 345.669C1060.05 345.782 1060.04 345.901 1060.06 346.018C1060.09 346.221 1060.18 346.41 1060.33 346.555C1060.47 346.7 1060.66 346.794 1060.86 346.821C1062.64 346.777 1064.4 347.199 1065.97 348.045C1067.53 348.891 1068.85 350.131 1069.79 351.643C1071.05 353.549 1071.72 355.785 1071.72 358.071C1071.72 360.812 1070.72 363.459 1068.89 365.505C1067.07 367.55 1064.55 368.852 1061.83 369.161C1060.52 369.278 1059.2 369.136 1057.94 368.742C1056.69 368.349 1055.53 367.713 1054.52 366.869C1053.51 366.026 1052.68 364.992 1052.07 363.827C1051.46 362.663 1051.09 361.389 1050.97 360.08V359.839C1050.69 356.599 1051.6 353.367 1053.55 350.759C1054.42 349.613 1055.52 348.662 1056.78 347.97C1058.04 347.278 1059.43 346.859 1060.86 346.741C1060.97 346.741 1061.08 346.719 1061.19 346.677C1061.29 346.634 1061.38 346.572 1061.46 346.494C1061.54 346.416 1061.6 346.323 1061.64 346.22C1061.68 346.118 1061.71 346.008 1061.71 345.897C1061.71 345.787 1061.68 345.677 1061.64 345.574C1061.6 345.472 1061.54 345.379 1061.46 345.301C1061.38 345.222 1061.29 345.16 1061.19 345.118C1061.08 345.075 1060.97 345.054 1060.86 345.054Z" fill="#32142A"/>
<path d="M1093.1 339.589C1086.99 339.83 1082.33 345.214 1081.52 351.08C1081.12 354.295 1081.44 357.75 1083.37 360.482C1085.01 362.885 1087.47 364.601 1090.29 365.304C1096.32 366.83 1102.59 363.214 1104.84 357.509C1105.51 355.752 1105.82 353.875 1105.74 351.994C1105.66 350.114 1105.18 348.27 1104.35 346.58C1103.35 344.458 1101.75 342.67 1099.76 341.43C1097.76 340.19 1095.45 339.551 1093.1 339.589C1092.85 339.614 1092.61 339.737 1092.45 339.932C1092.28 340.127 1092.2 340.379 1092.22 340.634C1092.24 340.837 1092.34 341.026 1092.48 341.171C1092.63 341.316 1092.82 341.41 1093.02 341.437C1094.8 341.393 1096.56 341.815 1098.12 342.661C1099.69 343.507 1101.01 344.747 1101.94 346.259C1103.17 348.181 1103.84 350.407 1103.87 352.687C1103.88 355.428 1102.87 358.075 1101.05 360.121C1099.22 362.167 1096.71 363.468 1093.98 363.777C1092.68 363.894 1091.36 363.752 1090.1 363.358C1088.85 362.965 1087.68 362.329 1086.67 361.486C1085.67 360.642 1084.83 359.608 1084.23 358.444C1083.62 357.279 1083.25 356.005 1083.13 354.696V354.455C1082.84 351.215 1083.76 347.983 1085.7 345.375C1086.57 344.229 1087.67 343.278 1088.93 342.586C1090.19 341.894 1091.59 341.475 1093.02 341.357C1093.14 341.362 1093.25 341.345 1093.36 341.305C1093.47 341.266 1093.57 341.205 1093.66 341.127C1093.74 341.048 1093.81 340.954 1093.86 340.849C1093.91 340.743 1093.94 340.629 1093.94 340.513C1093.95 340.397 1093.93 340.281 1093.89 340.172C1093.85 340.063 1093.79 339.962 1093.71 339.877C1093.64 339.791 1093.54 339.721 1093.44 339.672C1093.33 339.623 1093.22 339.595 1093.1 339.589Z" fill="#32142A"/>
<path d="M1106.2 355.098C1115.69 352.607 1125.02 349.875 1134.34 346.821C1134.58 346.757 1134.78 346.603 1134.9 346.392C1135.02 346.181 1135.05 345.931 1134.98 345.696C1134.92 345.462 1134.77 345.263 1134.55 345.142C1134.34 345.021 1134.09 344.99 1133.86 345.054C1124.61 348.107 1115.21 350.839 1105.72 353.33C1105.49 353.419 1105.3 353.594 1105.2 353.819C1105.09 354.044 1105.08 354.301 1105.16 354.536C1105.25 354.732 1105.4 354.893 1105.59 354.995C1105.77 355.096 1105.99 355.133 1106.2 355.098Z" fill="#32142A"/>
<path d="M1076.06 335.571C1074.93 330.991 1085.14 328.661 1085.46 332.598C1085.54 333.804 1084.42 334.366 1083.53 333.402C1082.57 332.277 1083.29 330.509 1083.85 329.384C1084.85 327.636 1086.33 326.213 1088.12 325.286C1089.94 324.32 1092.04 324.008 1094.06 324.402C1094.65 324.516 1095.18 324.81 1095.58 325.243C1095.98 325.676 1096.24 326.225 1096.32 326.813C1096.48 327.295 1097.04 330.107 1095.91 328.982C1095.27 328.339 1095.59 326.893 1095.83 326.17C1096.34 324.796 1097.33 323.651 1098.61 322.943C1099.9 322.235 1101.39 322.011 1102.83 322.313V320.625C1101.69 320.824 1100.53 320.752 1099.42 320.417C1098.32 320.082 1097.31 319.493 1096.48 318.696C1094.71 316.768 1095.59 314.598 1097.68 313.554C1098.59 313.098 1099.59 312.863 1100.6 312.867C1101.61 312.871 1102.61 313.114 1103.51 313.576C1104.41 314.038 1105.19 314.706 1105.78 315.526C1106.38 316.346 1106.77 317.295 1106.93 318.295C1107.17 319.42 1108.94 318.938 1108.7 317.813C1107.57 311.946 1100.34 308.893 1095.51 312.83C1095.02 313.193 1094.6 313.65 1094.29 314.174C1093.97 314.698 1093.76 315.279 1093.67 315.884C1093.58 316.489 1093.62 317.106 1093.77 317.699C1093.92 318.292 1094.18 318.849 1094.55 319.339C1094.63 319.5 1094.79 319.58 1094.87 319.741C1096.88 322.152 1100.17 322.875 1103.23 322.473C1104.11 322.313 1104.03 320.946 1103.23 320.705C1098.57 319.5 1092.54 323.839 1093.82 328.982C1093.94 329.502 1094.19 329.979 1094.56 330.362C1094.93 330.745 1095.4 331.019 1095.91 331.152C1096.18 331.216 1096.45 331.228 1096.72 331.186C1096.99 331.144 1097.25 331.049 1097.48 330.907C1097.71 330.766 1097.91 330.579 1098.07 330.359C1098.23 330.139 1098.34 329.889 1098.41 329.625C1098.54 328.313 1098.35 326.987 1097.84 325.768C1097.63 325.156 1097.3 324.595 1096.85 324.124C1096.41 323.653 1095.87 323.282 1095.27 323.036C1090.05 321.027 1083.69 324.884 1081.68 329.705C1080.72 332.036 1081.12 335.732 1084.34 335.893C1086.75 335.973 1087.63 333.321 1086.83 331.393C1085.54 328.42 1081.6 328.741 1079.03 329.545C1076.14 330.429 1073.4 332.839 1074.21 336.214C1074.3 336.444 1074.49 336.629 1074.71 336.73C1074.94 336.832 1075.2 336.842 1075.43 336.761C1075.67 336.679 1075.87 336.51 1075.98 336.289C1076.1 336.068 1076.12 335.812 1076.06 335.571Z" fill="white"/>
<path d="M1112.07 324.321C1111.83 322.071 1111.35 318.857 1113.68 317.411C1114.19 317.149 1114.76 317.055 1115.33 317.141C1115.89 317.228 1116.41 317.491 1116.82 317.893C1117.71 318.779 1118.27 319.94 1118.42 321.187C1118.5 321.75 1118.58 322.393 1118.66 323.036C1118.66 323.518 1118.91 324.321 1118.5 324.723C1118.1 325.125 1118.42 324.241 1118.5 324.08C1118.77 323.588 1119.16 323.172 1119.63 322.875C1121.48 321.589 1124.37 321.027 1125.66 323.357C1126.16 324.418 1126.46 325.562 1126.54 326.732C1126.62 327.696 1127.03 330.187 1125.58 330.348C1124.45 330.429 1124.37 332.277 1125.58 332.116C1127.51 331.875 1128.47 330.187 1128.55 328.42C1128.62 326.61 1128.32 324.806 1127.67 323.116C1127.38 322.318 1126.88 321.61 1126.23 321.06C1125.59 320.511 1124.81 320.139 1123.97 319.982C1122.08 319.76 1120.18 320.278 1118.66 321.429C1117.46 322.313 1115.93 324.241 1116.9 325.848C1117.86 327.455 1120.03 326.411 1120.43 324.964C1120.66 324.043 1120.69 323.084 1120.51 322.152C1120.46 321.158 1120.25 320.181 1119.87 319.259C1119.6 318.381 1119.12 317.58 1118.48 316.923C1117.84 316.266 1117.05 315.772 1116.17 315.482C1115.23 315.233 1114.23 315.303 1113.33 315.681C1112.42 316.059 1111.67 316.723 1111.19 317.571C1109.9 319.58 1110.06 322.071 1110.38 324.321C1110.38 325.446 1112.23 325.446 1112.07 324.321Z" fill="white"/>
<path d="M1118.58 336.697C1118.5 336.295 1119.07 335.973 1119.39 335.973C1119.63 335.948 1119.87 335.979 1120.09 336.063C1120.31 336.146 1120.51 336.281 1120.67 336.455C1121.23 337.083 1121.64 337.823 1121.88 338.625C1122.2 339.509 1122.52 340.795 1121.96 341.598C1121.8 341.843 1121.56 342.025 1121.28 342.113C1121 342.201 1120.7 342.189 1120.43 342.08C1119.39 341.357 1121.4 340.393 1121.96 340.313C1122.93 340.152 1123.97 339.911 1124.53 340.875C1125.42 342.681 1125.91 344.652 1125.98 346.661C1126.12 348.581 1125.93 350.51 1125.42 352.366C1125.18 353.305 1124.86 354.219 1124.45 355.098C1124.21 355.661 1123.57 357.268 1123.09 356.143C1122.61 355.201 1122.44 354.133 1122.6 353.089C1122.94 352.211 1123.56 351.473 1124.37 351C1126.06 349.795 1127.99 348.83 1129.76 347.705C1130.72 347.063 1129.84 345.536 1128.87 346.179L1124.85 348.589C1123.75 349.145 1122.75 349.878 1121.88 350.759C1120.27 352.607 1120.43 355.42 1121.72 357.509C1121.93 357.921 1122.29 358.237 1122.72 358.387C1123.16 358.537 1123.63 358.511 1124.05 358.313C1125.1 357.83 1125.66 356.705 1126.14 355.741C1127.2 353.306 1127.74 350.681 1127.75 348.027C1127.81 345.375 1127.29 342.741 1126.22 340.313C1126.03 339.803 1125.71 339.354 1125.28 339.014C1124.86 338.674 1124.35 338.457 1123.81 338.384C1122.57 338.236 1121.31 338.46 1120.19 339.027C1118.5 339.911 1117.54 342.563 1119.55 343.688C1121.24 344.652 1123.41 343.447 1123.89 341.679C1124.53 339.429 1123.33 335.893 1121.32 334.688C1119.31 333.482 1116.49 334.768 1116.9 337.259C1116.9 338.304 1118.66 337.822 1118.58 336.697Z" fill="white"/>
<path d="M1131.45 338.786C1131.15 338.403 1130.88 338 1130.64 337.58C1130.41 337.181 1130.25 336.747 1130.16 336.295C1130.03 335.852 1129.97 335.39 1130 334.928V333.723C1130 333.803 1130 333.482 1130.08 333.482C1130.13 333.249 1130.09 333.006 1129.97 332.799C1129.85 332.593 1129.66 332.436 1129.44 332.357C1129.32 332.325 1129.2 332.317 1129.08 332.332C1128.96 332.347 1128.85 332.386 1128.74 332.445C1128.64 332.505 1128.55 332.585 1128.47 332.68C1128.4 332.775 1128.34 332.884 1128.31 333C1128.07 334.236 1128.11 335.509 1128.42 336.731C1128.72 337.952 1129.29 339.092 1130.08 340.071C1130.26 340.226 1130.49 340.311 1130.72 340.311C1130.96 340.311 1131.19 340.226 1131.37 340.071C1131.52 339.894 1131.6 339.673 1131.62 339.442C1131.63 339.21 1131.57 338.98 1131.45 338.786Z" fill="white"/>
<path d="M953.137 542.893C953.539 554.143 946.304 566.116 929.743 560.732C912.218 555.027 930.869 526.5 946.786 534.134C951.208 536.223 953.057 539.438 953.137 542.893Z" fill="#FAC7B7"/>
<path d="M742.992 576.321C772.335 576.482 801.759 575.759 831.102 574.071C839.302 573.589 847.582 573.107 855.782 572.464C856.465 572.464 857.119 572.193 857.601 571.711C858.084 571.229 858.355 570.575 858.355 569.893C858.355 569.211 858.084 568.557 857.601 568.074C857.119 567.592 856.465 567.321 855.782 567.321C826.439 569.491 797.096 570.696 767.673 571.098C759.392 571.178 751.192 571.178 742.912 571.178C739.616 571.178 739.616 576.321 742.992 576.321Z" fill="#FAC7B7"/>
<path d="M740.178 558.723C770.969 559.286 801.678 559.527 832.469 559.607H858.274C861.571 559.607 861.651 554.384 858.274 554.464C827.484 554.545 796.721 554.384 765.984 553.982C757.382 553.902 748.78 553.741 740.178 553.58C736.802 553.5 736.802 558.643 740.178 558.723Z" fill="#FAC7B7"/>
<path d="M732.702 542.973C766.386 544.018 800.044 543.857 833.674 542.491C843.08 542.089 852.567 541.607 861.973 541.045C865.269 540.804 865.269 535.661 861.973 535.902C828.369 537.991 794.711 538.848 761 538.473C751.514 538.393 742.108 538.152 732.622 537.83C729.325 537.75 729.325 542.893 732.702 542.973Z" fill="#FAC7B7"/>
<path d="M729.647 525.214C750.549 525.75 771.478 525.589 792.433 524.732C795.729 524.571 795.81 519.428 792.433 519.589C771.531 520.393 750.603 520.553 729.647 520.071C726.271 519.991 726.271 525.134 729.647 525.214Z" fill="#FAC7B7"/>
<path d="M734.149 506.652H788.735C792.031 506.652 792.112 501.428 788.735 501.428H734.149C730.853 501.509 730.853 506.652 734.149 506.652Z" fill="#FAC7B7"/>
<path d="M740.178 604.286C770.969 604.848 801.678 605.089 832.469 605.17H858.274C861.571 605.17 861.651 599.946 858.274 600.027C827.484 600.107 796.721 599.946 765.984 599.545C757.382 599.464 748.78 599.303 740.178 599.143C736.802 599.062 736.802 604.205 740.178 604.286Z" fill="#FAC7B7"/>
<path d="M732.702 589.58C766.386 590.625 800.044 590.464 833.674 589.098C843.08 588.696 852.567 588.214 861.973 587.652C865.269 587.41 865.269 582.268 861.973 582.509C828.369 584.598 794.711 585.455 761 585.08C751.514 585 742.108 584.759 732.622 584.437C729.325 584.277 729.325 589.419 732.702 589.58Z" fill="#FAC7B7"/>
<path d="M1074.45 381.536C1070.59 385.473 1077.42 391.259 1081.36 387.723C1086.27 383.464 1078.71 377.196 1074.45 381.536Z" fill="#32142A"/>
<path d="M905.063 325.527C904.545 327.521 904.644 329.625 905.348 331.562C906.051 333.499 907.325 335.177 909.002 336.375C909.102 336.442 909.216 336.488 909.335 336.51C909.454 336.531 909.576 336.528 909.694 336.501C909.811 336.474 909.922 336.422 910.019 336.35C910.117 336.278 910.198 336.187 910.259 336.083C910.319 335.978 910.358 335.862 910.372 335.742C910.386 335.622 910.375 335.501 910.34 335.385C910.305 335.269 910.247 335.162 910.169 335.069C910.091 334.977 909.995 334.902 909.886 334.848C908.556 333.862 907.548 332.503 906.99 330.944C906.432 329.385 906.349 327.695 906.751 326.089C906.791 325.855 906.738 325.615 906.602 325.419C906.467 325.224 906.261 325.089 906.027 325.045C905.933 325.011 905.832 324.996 905.731 325.003C905.631 325.009 905.532 325.035 905.442 325.08C905.352 325.125 905.272 325.188 905.207 325.265C905.142 325.341 905.093 325.431 905.063 325.527Z" fill="#32142A"/>
<path d="M931.351 408.134C929.904 409.741 929.261 411.911 928.135 413.839C927.01 415.768 926.045 418.42 927.492 420.107C928.778 421.554 931.11 421.312 932.798 422.277C933.714 422.837 934.445 423.653 934.902 424.624C935.36 425.595 935.522 426.679 935.371 427.741C935.054 429.843 934.164 431.817 932.798 433.446C929.904 437.104 925.986 439.818 921.543 441.241L927.492 431.116C927.658 430.917 927.78 430.685 927.849 430.436C927.918 430.187 927.934 429.925 927.894 429.67C927.733 429.027 926.929 428.705 926.286 428.464L919.453 426.455C918.167 426.054 916.639 425.491 916.398 424.125C916.34 423.491 916.451 422.854 916.72 422.277C919.214 416.013 923.782 410.793 929.663 407.491C929.663 407.491 934.567 404.518 931.351 408.134Z" fill="white"/>
<path d="M946.626 401.062C945.011 403.256 943.56 405.566 942.284 407.973C941.4 409.661 939.551 412.473 940.355 414.482C941.48 417.214 945.902 415.768 946.867 418.42C948.314 422.437 945.902 426.214 943.49 429.268C941.824 431.414 940.025 433.454 938.104 435.375C937.172 436.348 936.178 437.261 935.129 438.107C934.808 438.348 932.075 439.795 932.155 439.554C932.477 436.5 936.094 433.527 937.782 431.116C939.471 428.705 941.239 426.375 942.686 423.884C943.973 421.634 940.435 420.429 938.988 419.786C935.933 418.42 933.682 417.696 935.531 413.839C937.175 410.369 939.14 407.06 941.4 403.955C943.329 401.384 946.063 397.045 949.439 396.08C948.939 397.683 948.148 399.181 947.108 400.5L946.626 401.062Z" fill="white"/>
<path d="M759.633 363.937C756.82 366.589 757.543 372.134 762.286 370.848C769.361 368.839 764.457 359.437 759.633 363.937Z" fill="white"/>
<path d="M819.686 247.5C817.837 249.268 818.32 252.964 821.455 252.08C826.118 250.795 822.822 244.527 819.686 247.5Z" fill="white"/>
<path d="M991.484 291.054C992.548 287.263 993.891 283.556 995.504 279.964C995.745 279.402 996.308 278.759 996.79 279C997.273 279.241 997.273 279.964 997.112 280.447C996.308 283.822 995.504 287.277 994.7 290.652C997.881 290.323 1001.09 290.821 1004.03 292.098C1004.09 292.119 1004.14 292.154 1004.19 292.199C1004.24 292.245 1004.28 292.301 1004.3 292.362C1004.32 292.424 1004.33 292.49 1004.33 292.555C1004.32 292.621 1004.3 292.684 1004.27 292.741C1004.27 292.822 1004.19 292.902 1004.11 292.982C1002.33 294.108 1000.26 294.668 998.157 294.589C997.788 294.492 997.402 294.477 997.026 294.547C996.651 294.616 996.296 294.768 995.986 294.991C995.686 295.361 995.492 295.805 995.423 296.277C994.725 299.218 993.644 302.055 992.208 304.714C992.127 304.847 992.001 304.945 991.852 304.989C991.704 305.034 991.544 305.022 991.404 304.955C991.33 304.918 991.268 304.86 991.226 304.789C991.183 304.718 991.161 304.636 991.163 304.554C990.6 301.902 991.725 298.929 991.645 296.116C991.652 295.804 991.568 295.497 991.404 295.232C991.279 295.077 991.119 294.952 990.938 294.869C990.757 294.785 990.558 294.744 990.359 294.75C987.369 294.111 984.438 293.224 981.596 292.098C980.792 291.777 979.908 290.973 980.471 290.33C980.679 290.161 980.929 290.05 981.194 290.009C982.975 289.688 984.799 289.688 986.58 290.009L991.484 291.054Z" fill="white"/>
<path d="M1018.17 257.464C1015.28 260.196 1016 265.982 1020.99 264.616C1028.3 262.527 1023.16 252.803 1018.17 257.464Z" fill="white"/>
<path d="M1031.84 400.178C1030.91 397.505 1030.19 394.765 1029.67 391.982C1029.59 391.5 1029.67 390.937 1030.07 390.857C1030.47 390.777 1030.72 391.259 1030.88 391.58C1031.76 393.911 1032.73 396.241 1033.61 398.652C1035.38 397.19 1037.48 396.171 1039.72 395.678C1039.88 395.678 1040.12 395.759 1040.12 396V396.241C1039.53 397.637 1038.52 398.816 1037.23 399.616C1036.75 399.937 1036.18 400.178 1036.1 400.741C1036.08 401.097 1036.13 401.454 1036.26 401.786C1037.05 403.824 1037.57 405.959 1037.79 408.134C1037.79 408.248 1037.75 408.357 1037.67 408.445C1037.6 408.532 1037.5 408.593 1037.39 408.616C1037.27 408.628 1037.16 408.6 1037.07 408.536C1035.62 407.25 1035.14 404.92 1033.93 403.312C1033.85 403.152 1033.61 402.991 1033.45 402.83C1033.31 402.794 1033.17 402.79 1033.03 402.818C1032.89 402.845 1032.76 402.905 1032.65 402.991C1030.61 403.829 1028.52 404.5 1026.37 405C1025.81 405.161 1024.93 405 1025.01 404.437C1025.09 404.259 1025.2 404.096 1025.33 403.955C1026.23 403.001 1027.32 402.26 1028.55 401.786L1031.84 400.178Z" fill="white"/>
<path d="M1184.67 424.527C1182.82 426.295 1183.3 429.991 1186.44 429.107C1191.1 427.821 1187.88 421.553 1184.67 424.527Z" fill="white"/>
<path d="M744.922 391.42C744.284 388.88 743.801 386.303 743.474 383.705C743.474 383.303 743.555 382.741 743.876 382.741C744.198 382.741 744.439 383.143 744.6 383.464C745.324 385.714 745.967 387.964 746.61 390.134C748.368 388.93 750.373 388.134 752.478 387.803C752.561 387.802 752.643 387.824 752.714 387.866C752.785 387.909 752.843 387.971 752.88 388.045C752.886 388.088 752.881 388.132 752.867 388.174C752.853 388.216 752.83 388.254 752.8 388.286C752.184 389.545 751.165 390.562 749.906 391.178C749.663 391.255 749.438 391.381 749.245 391.546C749.052 391.712 748.894 391.915 748.78 392.143C748.727 392.466 748.754 392.797 748.861 393.107C749.423 395.043 749.746 397.04 749.825 399.053C749.829 399.107 749.821 399.161 749.802 399.211C749.783 399.262 749.754 399.307 749.716 399.345C749.678 399.384 749.632 399.413 749.581 399.432C749.531 399.451 749.477 399.459 749.424 399.455C749.343 399.455 749.182 399.375 749.182 399.295C747.976 398.009 747.655 395.839 746.69 394.232C746.581 394.052 746.445 393.89 746.288 393.75C746.157 393.703 746.016 393.686 745.877 393.7C745.738 393.714 745.604 393.759 745.484 393.83C743.544 394.472 741.554 394.956 739.535 395.277C738.973 395.357 738.169 395.116 738.329 394.634C738.39 394.468 738.503 394.327 738.651 394.232C739.559 393.428 740.628 392.826 741.786 392.464L744.922 391.42Z" fill="white"/>
</g>
<g filter="url(#filter0_d_22049_2)">
<path d="M150 861C150 852.716 156.716 846 165 846H488C496.284 846 503 852.716 503 861V1224C503 1232.28 496.284 1239 488 1239H165C156.716 1239 150 1232.28 150 1224V861Z" fill="#FBFAF7"/>
</g>
<g clip-path="url(#clip1_22049_2)">
<path d="M194.606 909.912C191.953 911.445 190.263 914.249 190.14 917.342C189.721 927.803 189.323 949.91 203.778 961.131L216.168 969.491C218.994 971.398 222.648 971.495 225.581 969.752C229.414 967.476 234.546 964.048 237.512 960.489C237.646 960.325 237.786 960.172 237.932 960.018C239.812 958.083 253.97 942.599 251.771 917.07C251.519 914.147 249.879 911.524 247.372 910.054L225.435 897.21C222.704 895.609 219.341 895.598 216.605 897.187L194.606 909.912Z" fill="#F7BC28"/>
<path d="M201.422 915.763C199.458 916.898 198.204 918.981 198.109 921.274C197.795 929.033 197.504 945.425 208.221 953.751L217.41 959.955C219.509 961.368 222.217 961.442 224.388 960.148C227.231 958.462 231.037 955.919 233.236 953.28C233.337 953.161 233.437 953.042 233.549 952.934C234.943 951.498 245.402 939.902 243.813 921.081C243.712 919.861 240.724 916.211 239.705 915.383L224.288 906.341C222.262 905.155 219.772 905.149 217.74 906.324L201.422 915.763Z" fill="#E48929"/>
<path d="M220.997 905.444V933.5H243.164C243.164 933.5 244.742 925.673 243.819 921.081C243.819 921.081 243.561 917.925 239.711 915.383L224.288 906.341C224.288 906.341 222.721 905.388 220.997 905.444Z" fill="#FBFAF7"/>
<path d="M220.997 933.5L220.992 961.062C220.992 961.062 219.212 961.164 216.979 959.654L209.592 954.671C209.592 954.671 203.33 950.885 201.293 944.619C201.293 944.619 198.725 938.858 198.372 932.983L220.997 933.5Z" fill="#FBFAF7"/>
</g>
<g filter="url(#filter1_d_22049_2)">
<path d="M543 861C543 852.716 549.716 846 558 846H881C889.284 846 896 852.716 896 861V1261C896 1269.28 889.284 1276 881 1276H558C549.716 1276 543 1269.28 543 1261V861Z" fill="#FBFAF7"/>
</g>
<g clip-path="url(#clip2_22049_2)">
<path d="M618.923 921.67C621.281 918.58 624.8 896.559 631.123 902.573C635.24 906.476 637.7 917.41 641.231 921.555C645.54 926.603 667.147 921.492 665.936 929.578C665.095 935.185 652.972 938.719 649.798 943.207C643.692 951.827 654.081 957.701 653.431 966.118C652.743 974.941 639.128 966.08 634.985 963.639C631.569 961.63 629.504 959.621 625.552 960.689C618.694 962.532 615.162 970.072 607.896 970.975C600.554 971.89 608.088 956.036 609.12 953.607C610 951.548 613.722 946.055 613.174 943.767C612.179 939.609 603.817 938.312 600.362 937.206C594.511 935.35 591.031 929.044 597.673 927.976C605.487 926.704 615.086 926.692 618.923 921.67Z" fill="#F7BC28"/>
<path d="M623.933 929.031C625.233 927.327 627.171 915.236 630.638 918.542C632.895 920.691 634.259 926.692 636.196 928.968C638.567 931.739 650.435 928.929 649.772 933.379C649.314 936.456 642.647 938.401 640.9 940.868C637.547 945.598 643.258 948.827 642.901 953.455C642.519 958.299 635.049 953.429 632.767 952.094C630.893 950.988 629.759 949.882 627.579 950.467C623.818 951.484 621.868 955.629 617.878 956.125C613.85 956.621 617.98 947.924 618.553 946.577C619.038 945.445 621.077 942.432 620.772 941.173C620.223 938.885 615.621 938.173 613.735 937.575C610.522 936.558 608.61 933.087 612.256 932.502C616.552 931.79 621.817 931.79 623.933 929.031Z" fill="#E48929"/>
<path d="M653.354 904.188C653.482 901.594 654.03 899.013 654.986 896.585C655.101 896.293 655.33 895.937 655.649 896C655.878 896.051 655.993 896.305 656.057 896.521C656.592 898.111 656.936 899.751 657.077 901.429C657.102 901.658 657.128 901.912 657.293 902.065C657.561 902.306 657.995 902.154 658.313 901.988C659.856 901.187 661.411 900.374 662.953 899.573C663.03 901.556 660.786 902.739 659.792 904.455C659.639 904.722 659.511 905.014 659.575 905.32C659.626 905.599 659.843 905.803 660.034 906.006C661.436 907.43 662.839 908.854 664.254 910.291C662.137 910.52 659.932 909.884 658.262 908.562C658.262 911.041 657.995 913.533 657.446 915.961C656.261 914.118 655.381 912.071 654.884 909.947C653.648 910.837 652.398 911.715 651.162 912.605C651.799 911.27 652.437 909.935 653.074 908.612C653.15 908.434 653.24 908.256 653.227 908.066C653.201 907.761 652.934 907.544 652.679 907.366C651.302 906.464 648.536 905.764 648.192 903.959C649.607 903.374 651.837 903.908 653.354 904.188Z" fill="#FBC8B8"/>
<path d="M587.423 953.607C587.474 951.637 587.895 949.666 588.66 947.848C588.736 947.657 588.877 947.428 589.081 947.454C589.272 947.466 589.361 947.682 589.425 947.86C589.82 949.068 590.088 950.314 590.215 951.573C590.241 951.764 590.266 951.967 590.394 952.094C590.661 952.336 591.069 952.107 591.35 951.891C592.344 951.141 593.466 950.581 594.651 950.225C594.486 951.738 592.841 952.616 592.127 953.963C592.051 954.103 591.987 954.256 592.013 954.421C592.038 954.599 592.178 954.751 592.306 954.879C593.389 955.947 594.473 957.027 595.544 958.108C593.989 958.54 592.395 957.663 591.018 956.824C591.057 958.706 590.878 960.587 590.457 962.418C589.565 960.994 588.915 959.43 588.545 957.79C587.64 958.502 586.735 959.227 585.83 959.939C585.97 958.985 586.391 958.083 587.016 957.358C587.207 957.142 587.436 956.9 587.411 956.608C587.385 956.315 587.117 956.099 586.875 955.934C585.588 955.069 584.288 954.192 583 953.315C583.268 952.984 583.803 952.908 584.16 953.149L587.423 953.607Z" fill="#FBC8B8"/>
</g>
<g filter="url(#filter2_d_22049_2)">
<path d="M937 861C937 852.716 943.716 846 952 846H1275C1283.28 846 1290 852.716 1290 861V1224C1290 1232.28 1283.28 1239 1275 1239H952C943.716 1239 937 1232.28 937 1224V861Z" fill="#FBFAF7"/>
</g>
<path d="M1003.24 899.046C997.418 901.598 992.252 905.715 989.136 910.737C981.346 923.333 981.428 942.433 994.63 951.406C1010.62 962.273 1038.91 956.758 1040.8 934.529C1042.68 912.136 1027.27 888.673 1003.24 899.046Z" fill="#F7BC28"/>
<path d="M1005.95 905.55C1001.6 907.444 997.828 910.49 995.532 914.194C989.71 923.58 989.792 937.74 999.632 944.408C1011.52 952.476 1032.51 948.36 1033.91 931.895C1035.22 915.347 1023.82 897.894 1005.95 905.55Z" fill="#FBFAF7"/>
<path d="M1025.71 948.689C1029.73 953.794 1032.19 956.263 1035.96 959.392C1038.66 961.615 1041.37 963.837 1043.99 966.06C1046.21 967.872 1048.83 969.847 1051.62 969.353C1054.57 968.859 1056.62 965.402 1055.64 962.52C1055.31 961.532 1054.65 960.627 1053.92 959.803C1048.83 953.3 1042.93 947.454 1036.37 942.35L1025.71 948.689Z" fill="#F7BC28"/>
<path d="M1040.14 962.767L1049.57 954.452L1051.37 956.51L1042.19 964.414L1040.14 962.767Z" fill="#E48929"/>
<path d="M1043.42 965.566L1052.36 957.828L1053.92 959.803L1045.31 967.131L1043.42 965.566Z" fill="#E48929"/>
<defs>
<filter id="filter0_d_22049_2" x="135" y="831" width="393" height="433" filterUnits="userSpaceOnUse" color-interpolation-filters="sRGB">
<feFlood flood-opacity="0" result="BackgroundImageFix"/>
<feColorMatrix in="SourceAlpha" type="matrix" values="0 0 0 0 0 0 0 0 0 0 0 0 0 0 0 0 0 0 127 0" result="hardAlpha"/>
<feOffset dx="5" dy="5"/>
<feGaussianBlur stdDeviation="10"/>
<feColorMatrix type="matrix" values="0 0 0 0 0.913725 0 0 0 0 0.894118 0 0 0 0 0.835294 0 0 0 1 0"/>
<feBlend mode="normal" in2="BackgroundImageFix" result="effect1_dropShadow_22049_2"/>
<feBlend mode="normal" in="SourceGraphic" in2="effect1_dropShadow_22049_2" result="shape"/>
</filter>
<filter id="filter1_d_22049_2" x="528" y="831" width="393" height="470" filterUnits="userSpaceOnUse" color-interpolation-filters="sRGB">
<feFlood flood-opacity="0" result="BackgroundImageFix"/>
<feColorMatrix in="SourceAlpha" type="matrix" values="0 0 0 0 0 0 0 0 0 0 0 0 0 0 0 0 0 0 127 0" result="hardAlpha"/>
<feOffset dx="5" dy="5"/>
<feGaussianBlur stdDeviation="10"/>
<feColorMatrix type="matrix" values="0 0 0 0 0.913725 0 0 0 0 0.894118 0 0 0 0 0.835294 0 0 0 1 0"/>
<feBlend mode="normal" in2="BackgroundImageFix" result="effect1_dropShadow_22049_2"/>
<feBlend mode="normal" in="SourceGraphic" in2="effect1_dropShadow_22049_2" result="shape"/>
</filter>
<filter id="filter2_d_22049_2" x="922" y="831" width="393" height="433" filterUnits="userSpaceOnUse" color-interpolation-filters="sRGB">
<feFlood flood-opacity="0" result="BackgroundImageFix"/>
<feColorMatrix in="SourceAlpha" type="matrix" values="0 0 0 0 0 0 0 0 0 0 0 0 0 0 0 0 0 0 127 0" result="hardAlpha"/>
<feOffset dx="5" dy="5"/>
<feGaussianBlur stdDeviation="10"/>
<feColorMatrix type="matrix" values="0 0 0 0 0.913725 0 0 0 0 0.894118 0 0 0 0 0.835294 0 0 0 1 0"/>
<feBlend mode="normal" in2="BackgroundImageFix" result="effect1_dropShadow_22049_2"/>
<feBlend mode="normal" in="SourceGraphic" in2="effect1_dropShadow_22049_2" result="shape"/>
</filter>
<clipPath id="clip0_22049_2">
<rect width="492" height="423" fill="white" transform="translate(720 180)"/>
</clipPath>
<clipPath id="clip1_22049_2">
<rect width="62" height="75" fill="white" transform="translate(190 896)"/>
</clipPath>
<clipPath id="clip2_22049_2">
<rect width="83" height="75" fill="white" transform="translate(583 896)"/>
</clipPath>
</defs>
</svg>
